solid 
   facet normal 0.000000e+00 1.000000e+00 0.000000e+00
      outer loop
         vertex -1.480000e+02 1.500000e+02 2.273028e+00
         vertex -1.480000e+02 1.500000e+02 1.982730e+02
         vertex -1.400000e+02 1.500000e+02 1.900000e+02
      endloop
   endfacet
   facet normal 0.000000e+00 1.000000e+00 -0.000000e+00
      outer loop
         vertex 1.480000e+02 1.500000e+02 1.982730e+02
         vertex 1.480000e+02 1.500000e+02 2.273028e+00
         vertex 1.400000e+02 1.500000e+02 1.900000e+02
      endloop
   endfacet
   facet normal 0.000000e+00 1.000000e+00 0.000000e+00
      outer loop
         vertex 1.090358e+02 1.500000e+02 5.123961e+00
         vertex 1.100000e+02 1.500000e+02 4.773028e+00
         vertex -1.480000e+02 1.500000e+02 2.273028e+00
      endloop
   endfacet
   facet normal -0.000000e+00 1.000000e+00 0.000000e+00
      outer loop
         vertex 1.109642e+02 1.500000e+02 5.123961e+00
         vertex 1.114772e+02 1.500000e+02 6.012556e+00
         vertex 1.400000e+02 1.500000e+02 1.000000e+01
      endloop
   endfacet
   facet normal -0.000000e+00 1.000000e+00 0.000000e+00
      outer loop
         vertex 1.112990e+02 1.500000e+02 7.023028e+00
         vertex 1.105130e+02 1.500000e+02 7.682567e+00
         vertex 1.400000e+02 1.500000e+02 1.000000e+01
      endloop
   endfacet
   facet normal 0.000000e+00 1.000000e+00 -0.000000e+00
      outer loop
         vertex 1.087010e+02 1.500000e+02 7.023028e+00
         vertex 1.085228e+02 1.500000e+02 6.012556e+00
         vertex -1.400000e+02 1.500000e+02 1.000000e+01
      endloop
   endfacet
   facet normal 0.000000e+00 1.000000e+00 -0.000000e+00
      outer loop
         vertex -1.400000e+02 1.500000e+02 1.900000e+02
         vertex -1.400000e+02 1.500000e+02 1.000000e+01
         vertex -1.480000e+02 1.500000e+02 2.273028e+00
      endloop
   endfacet
   facet normal 0.000000e+00 1.000000e+00 0.000000e+00
      outer loop
         vertex 1.400000e+02 1.500000e+02 1.000000e+01
         vertex 1.400000e+02 1.500000e+02 1.900000e+02
         vertex 1.480000e+02 1.500000e+02 2.273028e+00
      endloop
   endfacet
   facet normal 0.000000e+00 1.000000e+00 0.000000e+00
      outer loop
         vertex -1.400000e+02 1.500000e+02 1.900000e+02
         vertex -1.480000e+02 1.500000e+02 1.982730e+02
         vertex 1.400000e+02 1.500000e+02 1.900000e+02
      endloop
   endfacet
   facet normal 0.000000e+00 1.000000e+00 0.000000e+00
      outer loop
         vertex -1.480000e+02 1.500000e+02 2.273028e+00
         vertex 1.100000e+02 1.500000e+02 4.773028e+00
         vertex 1.480000e+02 1.500000e+02 2.273028e+00
      endloop
   endfacet
   facet normal 0.000000e+00 1.000000e+00 0.000000e+00
      outer loop
         vertex 1.112990e+02 1.500000e+02 7.023028e+00
         vertex 1.400000e+02 1.500000e+02 1.000000e+01
         vertex 1.114772e+02 1.500000e+02 6.012556e+00
      endloop
   endfacet
   facet normal 0.000000e+00 1.000000e+00 0.000000e+00
      outer loop
         vertex -1.480000e+02 1.500000e+02 2.273028e+00
         vertex -1.400000e+02 1.500000e+02 1.000000e+01
         vertex 1.090358e+02 1.500000e+02 5.123961e+00
      endloop
   endfacet
   facet normal -0.000000e+00 1.000000e+00 0.000000e+00
      outer loop
         vertex 1.480000e+02 1.500000e+02 2.273028e+00
         vertex 1.100000e+02 1.500000e+02 4.773028e+00
         vertex 1.109642e+02 1.500000e+02 5.123961e+00
      endloop
   endfacet
   facet normal 0.000000e+00 1.000000e+00 0.000000e+00
      outer loop
         vertex -1.480000e+02 1.500000e+02 1.982730e+02
         vertex 1.480000e+02 1.500000e+02 1.982730e+02
         vertex 1.400000e+02 1.500000e+02 1.900000e+02
      endloop
   endfacet
   facet normal 0.000000e+00 1.000000e+00 -0.000000e+00
      outer loop
         vertex 1.094870e+02 1.500000e+02 7.682567e+00
         vertex 1.087010e+02 1.500000e+02 7.023028e+00
         vertex -1.400000e+02 1.500000e+02 1.000000e+01
      endloop
   endfacet
   facet normal 0.000000e+00 1.000000e+00 0.000000e+00
      outer loop
         vertex -1.400000e+02 1.500000e+02 1.000000e+01
         vertex 1.400000e+02 1.500000e+02 1.000000e+01
         vertex 1.094870e+02 1.500000e+02 7.682567e+00
      endloop
   endfacet
   facet normal 0.000000e+00 1.000000e+00 -0.000000e+00
      outer loop
         vertex 1.400000e+02 1.500000e+02 1.000000e+01
         vertex 1.105130e+02 1.500000e+02 7.682567e+00
         vertex 1.094870e+02 1.500000e+02 7.682567e+00
      endloop
   endfacet
   facet normal 0.000000e+00 1.000000e+00 0.000000e+00
      outer loop
         vertex 1.090358e+02 1.500000e+02 5.123961e+00
         vertex -1.400000e+02 1.500000e+02 1.000000e+01
         vertex 1.085228e+02 1.500000e+02 6.012556e+00
      endloop
   endfacet
   facet normal 0.000000e+00 1.000000e+00 0.000000e+00
      outer loop
         vertex 1.109642e+02 1.500000e+02 5.123961e+00
         vertex 1.400000e+02 1.500000e+02 1.000000e+01
         vertex 1.480000e+02 1.500000e+02 2.273028e+00
      endloop
   endfacet
   facet normal 3.420204e-01 -0.000000e+00 9.396925e-01
      outer loop
         vertex 1.090358e+02 1.400000e+02 5.123961e+00
         vertex 1.100000e+02 1.400000e+02 4.773028e+00
         vertex 1.100000e+02 1.500000e+02 4.773028e+00
      endloop
   endfacet
   facet normal 9.848085e-01 0.000000e+00 -1.736441e-01
      outer loop
         vertex 1.087010e+02 1.500000e+02 7.023028e+00
         vertex 1.087010e+02 1.400000e+02 7.023028e+00
         vertex 1.085228e+02 1.400000e+02 6.012556e+00
      endloop
   endfacet
   facet normal 0.000000e+00 0.000000e+00 -1.000000e+00
      outer loop
         vertex 1.105130e+02 1.500000e+02 7.682567e+00
         vertex 1.105130e+02 1.400000e+02 7.682567e+00
         vertex 1.094870e+02 1.400000e+02 7.682567e+00
      endloop
   endfacet
   facet normal -9.848085e-01 0.000000e+00 -1.736441e-01
      outer loop
         vertex 1.114772e+02 1.500000e+02 6.012556e+00
         vertex 1.114772e+02 1.400000e+02 6.012556e+00
         vertex 1.112990e+02 1.400000e+02 7.023028e+00
      endloop
   endfacet
   facet normal -3.420204e-01 0.000000e+00 9.396925e-01
      outer loop
         vertex 1.100000e+02 1.500000e+02 4.773028e+00
         vertex 1.100000e+02 1.400000e+02 4.773028e+00
         vertex 1.109642e+02 1.400000e+02 5.123961e+00
      endloop
   endfacet
   facet normal -8.660251e-01 0.000000e+00 5.000005e-01
      outer loop
         vertex 1.114772e+02 1.400000e+02 6.012556e+00
         vertex 1.114772e+02 1.500000e+02 6.012556e+00
         vertex 1.109642e+02 1.500000e+02 5.123961e+00
      endloop
   endfacet
   facet normal -6.427861e-01 -0.000000e+00 -7.660457e-01
      outer loop
         vertex 1.105130e+02 1.400000e+02 7.682567e+00
         vertex 1.105130e+02 1.500000e+02 7.682567e+00
         vertex 1.112990e+02 1.500000e+02 7.023028e+00
      endloop
   endfacet
   facet normal 6.427861e-01 0.000000e+00 -7.660457e-01
      outer loop
         vertex 1.087010e+02 1.400000e+02 7.023028e+00
         vertex 1.087010e+02 1.500000e+02 7.023028e+00
         vertex 1.094870e+02 1.500000e+02 7.682567e+00
      endloop
   endfacet
   facet normal 8.660251e-01 0.000000e+00 5.000005e-01
      outer loop
         vertex 1.090358e+02 1.400000e+02 5.123961e+00
         vertex 1.090358e+02 1.500000e+02 5.123961e+00
         vertex 1.085228e+02 1.500000e+02 6.012556e+00
      endloop
   endfacet
   facet normal 3.420204e-01 -0.000000e+00 9.396925e-01
      outer loop
         vertex 1.090358e+02 1.500000e+02 5.123961e+00
         vertex 1.090358e+02 1.400000e+02 5.123961e+00
         vertex 1.100000e+02 1.500000e+02 4.773028e+00
      endloop
   endfacet
   facet normal -9.848085e-01 0.000000e+00 -1.736441e-01
      outer loop
         vertex 1.112990e+02 1.500000e+02 7.023028e+00
         vertex 1.114772e+02 1.500000e+02 6.012556e+00
         vertex 1.112990e+02 1.400000e+02 7.023028e+00
      endloop
   endfacet
   facet normal -6.427861e-01 0.000000e+00 -7.660457e-01
      outer loop
         vertex 1.112990e+02 1.400000e+02 7.023028e+00
         vertex 1.105130e+02 1.400000e+02 7.682567e+00
         vertex 1.112990e+02 1.500000e+02 7.023028e+00
      endloop
   endfacet
   facet normal 8.660251e-01 -0.000000e+00 5.000005e-01
      outer loop
         vertex 1.085228e+02 1.500000e+02 6.012556e+00
         vertex 1.085228e+02 1.400000e+02 6.012556e+00
         vertex 1.090358e+02 1.400000e+02 5.123961e+00
      endloop
   endfacet
   facet normal -8.660251e-01 0.000000e+00 5.000005e-01
      outer loop
         vertex 1.109642e+02 1.500000e+02 5.123961e+00
         vertex 1.109642e+02 1.400000e+02 5.123961e+00
         vertex 1.114772e+02 1.400000e+02 6.012556e+00
      endloop
   endfacet
   facet normal 0.000000e+00 0.000000e+00 -1.000000e+00
      outer loop
         vertex 1.094870e+02 1.400000e+02 7.682567e+00
         vertex 1.094870e+02 1.500000e+02 7.682567e+00
         vertex 1.105130e+02 1.500000e+02 7.682567e+00
      endloop
   endfacet
   facet normal 9.848085e-01 0.000000e+00 -1.736441e-01
      outer loop
         vertex 1.085228e+02 1.500000e+02 6.012556e+00
         vertex 1.087010e+02 1.500000e+02 7.023028e+00
         vertex 1.085228e+02 1.400000e+02 6.012556e+00
      endloop
   endfacet
   facet normal -3.420204e-01 0.000000e+00 9.396925e-01
      outer loop
         vertex 1.100000e+02 1.500000e+02 4.773028e+00
         vertex 1.109642e+02 1.400000e+02 5.123961e+00
         vertex 1.109642e+02 1.500000e+02 5.123961e+00
      endloop
   endfacet
   facet normal 6.427861e-01 0.000000e+00 -7.660457e-01
      outer loop
         vertex 1.094870e+02 1.500000e+02 7.682567e+00
         vertex 1.094870e+02 1.400000e+02 7.682567e+00
         vertex 1.087010e+02 1.400000e+02 7.023028e+00
      endloop
   endfacet
   facet normal 0.000000e+00 0.000000e+00 -1.000000e+00
      outer loop
         vertex 1.480000e+02 1.500000e+02 1.982730e+02
         vertex -1.480000e+02 1.500000e+02 1.982730e+02
         vertex -1.480000e+02 1.600000e+02 1.982730e+02
      endloop
   endfacet
   facet normal 0.000000e+00 0.000000e+00 -1.000000e+00
      outer loop
         vertex 1.480000e+02 1.500000e+02 1.982730e+02
         vertex -1.480000e+02 1.600000e+02 1.982730e+02
         vertex 1.480000e+02 1.600000e+02 1.982730e+02
      endloop
   endfacet
   facet normal -1.000000e+00 0.000000e+00 0.000000e+00
      outer loop
         vertex 1.480000e+02 1.500000e+02 2.273028e+00
         vertex 1.480000e+02 1.500000e+02 1.982730e+02
         vertex 1.480000e+02 1.600000e+02 1.982730e+02
      endloop
   endfacet
   facet normal -1.000000e+00 0.000000e+00 -0.000000e+00
      outer loop
         vertex 1.480000e+02 1.500000e+02 2.273028e+00
         vertex 1.480000e+02 1.600000e+02 1.982730e+02
         vertex 1.480000e+02 1.600000e+02 2.273028e+00
      endloop
   endfacet
   facet normal 0.000000e+00 -0.000000e+00 1.000000e+00
      outer loop
         vertex -1.480000e+02 1.500000e+02 2.273028e+00
         vertex 1.480000e+02 1.500000e+02 2.273028e+00
         vertex 1.480000e+02 1.600000e+02 2.273028e+00
      endloop
   endfacet
   facet normal 0.000000e+00 0.000000e+00 1.000000e+00
      outer loop
         vertex -1.480000e+02 1.500000e+02 2.273028e+00
         vertex 1.480000e+02 1.600000e+02 2.273028e+00
         vertex -1.480000e+02 1.600000e+02 2.273028e+00
      endloop
   endfacet
   facet normal 1.000000e+00 0.000000e+00 0.000000e+00
      outer loop
         vertex -1.480000e+02 1.500000e+02 1.982730e+02
         vertex -1.480000e+02 1.500000e+02 2.273028e+00
         vertex -1.480000e+02 1.600000e+02 2.273028e+00
      endloop
   endfacet
   facet normal 1.000000e+00 0.000000e+00 -0.000000e+00
      outer loop
         vertex -1.480000e+02 1.500000e+02 1.982730e+02
         vertex -1.480000e+02 1.600000e+02 2.273028e+00
         vertex -1.480000e+02 1.600000e+02 1.982730e+02
      endloop
   endfacet
   facet normal 0.000000e+00 0.000000e+00 1.000000e+00
      outer loop
         vertex 1.400000e+02 -6.123234e-16 1.000000e+01
         vertex 1.400000e+02 1.500000e+02 1.000000e+01
         vertex -1.400000e+02 1.500000e+02 1.000000e+01
      endloop
   endfacet
   facet normal 0.000000e+00 0.000000e+00 1.000000e+00
      outer loop
         vertex -1.400000e+02 -6.123234e-16 1.000000e+01
         vertex 1.400000e+02 -6.123234e-16 1.000000e+01
         vertex -1.400000e+02 1.500000e+02 1.000000e+01
      endloop
   endfacet
   facet normal -1.000000e+00 -0.000000e+00 -0.000000e+00
      outer loop
         vertex 1.400000e+02 -1.163414e-14 1.900000e+02
         vertex 1.400000e+02 1.500000e+02 1.900000e+02
         vertex 1.400000e+02 1.500000e+02 1.000000e+01
      endloop
   endfacet
   facet normal -1.000000e+00 0.000000e+00 0.000000e+00
      outer loop
         vertex 1.400000e+02 -6.123234e-16 1.000000e+01
         vertex 1.400000e+02 -1.163414e-14 1.900000e+02
         vertex 1.400000e+02 1.500000e+02 1.000000e+01
      endloop
   endfacet
   facet normal 0.000000e+00 0.000000e+00 -1.000000e+00
      outer loop
         vertex -1.400000e+02 -1.163414e-14 1.900000e+02
         vertex -1.400000e+02 1.500000e+02 1.900000e+02
         vertex 1.400000e+02 1.500000e+02 1.900000e+02
      endloop
   endfacet
   facet normal 0.000000e+00 0.000000e+00 -1.000000e+00
      outer loop
         vertex 1.400000e+02 -1.163414e-14 1.900000e+02
         vertex -1.400000e+02 -1.163414e-14 1.900000e+02
         vertex 1.400000e+02 1.500000e+02 1.900000e+02
      endloop
   endfacet
   facet normal 1.000000e+00 0.000000e+00 0.000000e+00
      outer loop
         vertex -1.400000e+02 -6.123234e-16 1.000000e+01
         vertex -1.400000e+02 1.500000e+02 1.000000e+01
         vertex -1.400000e+02 -1.163414e-14 1.900000e+02
      endloop
   endfacet
   facet normal 1.000000e+00 -0.000000e+00 0.000000e+00
      outer loop
         vertex -1.400000e+02 1.500000e+02 1.900000e+02
         vertex -1.400000e+02 -1.163414e-14 1.900000e+02
         vertex -1.400000e+02 1.500000e+02 1.000000e+01
      endloop
   endfacet
   facet normal 0.000000e+00 1.000000e+00 -0.000000e+00
      outer loop
         vertex 1.109642e+02 1.400000e+02 5.123961e+00
         vertex 1.100000e+02 1.400000e+02 4.773028e+00
         vertex 1.090358e+02 1.400000e+02 5.123961e+00
      endloop
   endfacet
   facet normal -0.000000e+00 1.000000e+00 0.000000e+00
      outer loop
         vertex 1.085228e+02 1.400000e+02 6.012556e+00
         vertex 1.087010e+02 1.400000e+02 7.023028e+00
         vertex 1.094870e+02 1.400000e+02 7.682567e+00
      endloop
   endfacet
   facet normal 0.000000e+00 1.000000e+00 0.000000e+00
      outer loop
         vertex 1.105130e+02 1.400000e+02 7.682567e+00
         vertex 1.112990e+02 1.400000e+02 7.023028e+00
         vertex 1.114772e+02 1.400000e+02 6.012556e+00
      endloop
   endfacet
   facet normal 0.000000e+00 1.000000e+00 -0.000000e+00
      outer loop
         vertex 1.109642e+02 1.400000e+02 5.123961e+00
         vertex 1.090358e+02 1.400000e+02 5.123961e+00
         vertex 1.085228e+02 1.400000e+02 6.012556e+00
      endloop
   endfacet
   facet normal -0.000000e+00 1.000000e+00 0.000000e+00
      outer loop
         vertex 1.109642e+02 1.400000e+02 5.123961e+00
         vertex 1.085228e+02 1.400000e+02 6.012556e+00
         vertex 1.114772e+02 1.400000e+02 6.012556e+00
      endloop
   endfacet
   facet normal 0.000000e+00 1.000000e+00 0.000000e+00
      outer loop
         vertex 1.094870e+02 1.400000e+02 7.682567e+00
         vertex 1.105130e+02 1.400000e+02 7.682567e+00
         vertex 1.114772e+02 1.400000e+02 6.012556e+00
      endloop
   endfacet
   facet normal 0.000000e+00 1.000000e+00 0.000000e+00
      outer loop
         vertex 1.114772e+02 1.400000e+02 6.012556e+00
         vertex 1.085228e+02 1.400000e+02 6.012556e+00
         vertex 1.094870e+02 1.400000e+02 7.682567e+00
      endloop
   endfacet
   facet normal 0.000000e+00 1.000000e+00 0.000000e+00
      outer loop
         vertex -1.500000e+02 1.600000e+02 5.000000e+00
         vertex -1.500000e+02 1.600000e+02 1.950000e+02
         vertex -1.480000e+02 1.600000e+02 2.273028e+00
      endloop
   endfacet
   facet normal 0.000000e+00 1.000000e+00 0.000000e+00
      outer loop
         vertex -1.496194e+02 1.600000e+02 1.969134e+02
         vertex -1.485355e+02 1.600000e+02 1.985355e+02
         vertex -1.480000e+02 1.600000e+02 1.982730e+02
      endloop
   endfacet
   facet normal 0.000000e+00 1.000000e+00 0.000000e+00
      outer loop
         vertex -1.469134e+02 1.600000e+02 1.996194e+02
         vertex -1.450000e+02 1.600000e+02 2.000000e+02
         vertex -1.480000e+02 1.600000e+02 1.982730e+02
      endloop
   endfacet
   facet normal 0.000000e+00 1.000000e+00 0.000000e+00
      outer loop
         vertex 1.450000e+02 1.600000e+02 2.000000e+02
         vertex 1.469134e+02 1.600000e+02 1.996194e+02
         vertex 1.480000e+02 1.600000e+02 1.982730e+02
      endloop
   endfacet
   facet normal 0.000000e+00 1.000000e+00 0.000000e+00
      outer loop
         vertex 1.485355e+02 1.600000e+02 1.985355e+02
         vertex 1.496194e+02 1.600000e+02 1.969134e+02
         vertex 1.480000e+02 1.600000e+02 1.982730e+02
      endloop
   endfacet
   facet normal 0.000000e+00 1.000000e+00 -0.000000e+00
      outer loop
         vertex 1.500000e+02 1.600000e+02 1.950000e+02
         vertex 1.500000e+02 1.600000e+02 5.000000e+00
         vertex 1.480000e+02 1.600000e+02 2.273028e+00
      endloop
   endfacet
   facet normal 0.000000e+00 1.000000e+00 -0.000000e+00
      outer loop
         vertex 1.496194e+02 1.600000e+02 3.086583e+00
         vertex 1.485355e+02 1.600000e+02 1.464466e+00
         vertex 1.480000e+02 1.600000e+02 2.273028e+00
      endloop
   endfacet
   facet normal 0.000000e+00 1.000000e+00 0.000000e+00
      outer loop
         vertex 1.469134e+02 1.600000e+02 3.806023e-01
         vertex 1.450000e+02 1.600000e+02 3.006405e-14
         vertex 1.480000e+02 1.600000e+02 2.273028e+00
      endloop
   endfacet
   facet normal -0.000000e+00 1.000000e+00 -0.000000e+00
      outer loop
         vertex -1.450000e+02 1.600000e+02 -7.971338e-15
         vertex -1.469134e+02 1.600000e+02 3.806023e-01
         vertex -1.480000e+02 1.600000e+02 2.273028e+00
      endloop
   endfacet
   facet normal 0.000000e+00 1.000000e+00 0.000000e+00
      outer loop
         vertex -1.485355e+02 1.600000e+02 1.464466e+00
         vertex -1.496194e+02 1.600000e+02 3.086583e+00
         vertex -1.480000e+02 1.600000e+02 2.273028e+00
      endloop
   endfacet
   facet normal 0.000000e+00 1.000000e+00 0.000000e+00
      outer loop
         vertex 1.480000e+02 1.600000e+02 2.273028e+00
         vertex 1.480000e+02 1.600000e+02 1.982730e+02
         vertex 1.500000e+02 1.600000e+02 1.950000e+02
      endloop
   endfacet
   facet normal 0.000000e+00 1.000000e+00 -0.000000e+00
      outer loop
         vertex -1.480000e+02 1.600000e+02 1.982730e+02
         vertex -1.480000e+02 1.600000e+02 2.273028e+00
         vertex -1.500000e+02 1.600000e+02 1.950000e+02
      endloop
   endfacet
   facet normal 0.000000e+00 1.000000e+00 0.000000e+00
      outer loop
         vertex -1.500000e+02 1.600000e+02 5.000000e+00
         vertex -1.480000e+02 1.600000e+02 2.273028e+00
         vertex -1.496194e+02 1.600000e+02 3.086583e+00
      endloop
   endfacet
   facet normal 0.000000e+00 1.000000e+00 -0.000000e+00
      outer loop
         vertex -1.469134e+02 1.600000e+02 1.996194e+02
         vertex -1.480000e+02 1.600000e+02 1.982730e+02
         vertex -1.485355e+02 1.600000e+02 1.985355e+02
      endloop
   endfacet
   facet normal 0.000000e+00 1.000000e+00 -0.000000e+00
      outer loop
         vertex 1.485355e+02 1.600000e+02 1.985355e+02
         vertex 1.480000e+02 1.600000e+02 1.982730e+02
         vertex 1.469134e+02 1.600000e+02 1.996194e+02
      endloop
   endfacet
   facet normal 0.000000e+00 1.000000e+00 0.000000e+00
      outer loop
         vertex 1.480000e+02 1.600000e+02 2.273028e+00
         vertex 1.485355e+02 1.600000e+02 1.464466e+00
         vertex 1.469134e+02 1.600000e+02 3.806023e-01
      endloop
   endfacet
   facet normal 0.000000e+00 1.000000e+00 0.000000e+00
      outer loop
         vertex -1.480000e+02 1.600000e+02 2.273028e+00
         vertex -1.469134e+02 1.600000e+02 3.806023e-01
         vertex -1.485355e+02 1.600000e+02 1.464466e+00
      endloop
   endfacet
   facet normal -0.000000e+00 1.000000e+00 0.000000e+00
      outer loop
         vertex -1.500000e+02 1.600000e+02 1.950000e+02
         vertex -1.496194e+02 1.600000e+02 1.969134e+02
         vertex -1.480000e+02 1.600000e+02 1.982730e+02
      endloop
   endfacet
   facet normal 0.000000e+00 1.000000e+00 0.000000e+00
      outer loop
         vertex 1.496194e+02 1.600000e+02 1.969134e+02
         vertex 1.500000e+02 1.600000e+02 1.950000e+02
         vertex 1.480000e+02 1.600000e+02 1.982730e+02
      endloop
   endfacet
   facet normal 0.000000e+00 1.000000e+00 0.000000e+00
      outer loop
         vertex 1.480000e+02 1.600000e+02 1.982730e+02
         vertex -1.480000e+02 1.600000e+02 1.982730e+02
         vertex -1.450000e+02 1.600000e+02 2.000000e+02
      endloop
   endfacet
   facet normal 0.000000e+00 1.000000e+00 0.000000e+00
      outer loop
         vertex 1.480000e+02 1.600000e+02 2.273028e+00
         vertex 1.500000e+02 1.600000e+02 5.000000e+00
         vertex 1.496194e+02 1.600000e+02 3.086583e+00
      endloop
   endfacet
   facet normal -0.000000e+00 1.000000e+00 0.000000e+00
      outer loop
         vertex 1.480000e+02 1.600000e+02 1.982730e+02
         vertex -1.450000e+02 1.600000e+02 2.000000e+02
         vertex 1.450000e+02 1.600000e+02 2.000000e+02
      endloop
   endfacet
   facet normal 0.000000e+00 1.000000e+00 -0.000000e+00
      outer loop
         vertex 1.450000e+02 1.600000e+02 3.006405e-14
         vertex -1.450000e+02 1.600000e+02 -7.971338e-15
         vertex -1.480000e+02 1.600000e+02 2.273028e+00
      endloop
   endfacet
   facet normal 0.000000e+00 1.000000e+00 -0.000000e+00
      outer loop
         vertex 1.480000e+02 1.600000e+02 2.273028e+00
         vertex 1.450000e+02 1.600000e+02 3.006405e-14
         vertex -1.480000e+02 1.600000e+02 2.273028e+00
      endloop
   endfacet
   facet normal 9.644354e-17 -1.000000e+00 -6.240535e-17
      outer loop
         vertex 1.400000e+02 -1.163414e-14 1.900000e+02
         vertex 1.450000e+02 3.930623e-16 5.000000e+00
         vertex 1.450000e+02 -1.146395e-14 1.950000e+02
      endloop
   endfacet
   facet normal -4.120393e-17 -1.000000e+00 -5.983257e-17
      outer loop
         vertex -1.400000e+02 -1.163414e-14 1.900000e+02
         vertex -1.500000e+02 -1.152127e-14 1.950000e+02
         vertex -1.500000e+02 -1.530808e-16 5.000000e+00
      endloop
   endfacet
   facet normal -0.000000e+00 -1.000000e+00 -2.010771e-16
      outer loop
         vertex 1.450000e+02 3.930623e-16 5.000000e+00
         vertex 1.400000e+02 -6.123234e-16 1.000000e+01
         vertex -1.400000e+02 -6.123234e-16 1.000000e+01
      endloop
   endfacet
   facet normal 0.000000e+00 -1.000000e+00 3.403819e-17
      outer loop
         vertex 1.450000e+02 -1.146395e-14 1.950000e+02
         vertex -1.400000e+02 -1.163414e-14 1.900000e+02
         vertex 1.400000e+02 -1.163414e-14 1.900000e+02
      endloop
   endfacet
   facet normal 1.398448e-16 -1.000000e+00 -6.123234e-17
      outer loop
         vertex 1.400000e+02 -6.123234e-16 1.000000e+01
         vertex 1.450000e+02 3.930623e-16 5.000000e+00
         vertex 1.400000e+02 -1.163414e-14 1.900000e+02
      endloop
   endfacet
   facet normal 1.851333e-18 -1.000000e+00 -9.555118e-17
      outer loop
         vertex -1.500000e+02 -1.530808e-16 5.000000e+00
         vertex 1.450000e+02 3.930623e-16 5.000000e+00
         vertex -1.400000e+02 -6.123234e-16 1.000000e+01
      endloop
   endfacet
   facet normal 1.942864e-19 -1.000000e+00 2.296386e-17
      outer loop
         vertex -1.400000e+02 -1.163414e-14 1.900000e+02
         vertex 1.450000e+02 -1.146395e-14 1.950000e+02
         vertex -1.500000e+02 -1.152127e-14 1.950000e+02
      endloop
   endfacet
   facet normal -1.530808e-17 -1.000000e+00 -6.123234e-17
      outer loop
         vertex -1.400000e+02 -6.123234e-16 1.000000e+01
         vertex -1.400000e+02 -1.163414e-14 1.900000e+02
         vertex -1.500000e+02 -1.530808e-16 5.000000e+00
      endloop
   endfacet
   facet normal -1.000000e+00 0.000000e+00 0.000000e+00
      outer loop
         vertex -1.500000e+02 -1.530808e-16 5.000000e+00
         vertex -1.500000e+02 -1.152127e-14 1.950000e+02
         vertex -1.500000e+02 1.600000e+02 5.000000e+00
      endloop
   endfacet
   facet normal -1.000000e+00 0.000000e+00 0.000000e+00
      outer loop
         vertex -1.500000e+02 1.600000e+02 1.950000e+02
         vertex -1.500000e+02 1.600000e+02 5.000000e+00
         vertex -1.500000e+02 -1.152127e-14 1.950000e+02
      endloop
   endfacet
   facet normal -0.000000e+00 0.000000e+00 1.000000e+00
      outer loop
         vertex 1.450000e+02 1.600000e+02 2.000000e+02
         vertex -1.450000e+02 1.600000e+02 2.000000e+02
         vertex -1.450000e+02 5.000000e+00 2.000000e+02
      endloop
   endfacet
   facet normal 0.000000e+00 0.000000e+00 1.000000e+00
      outer loop
         vertex 1.450000e+02 5.000000e+00 2.000000e+02
         vertex 1.450000e+02 1.600000e+02 2.000000e+02
         vertex -1.450000e+02 5.000000e+00 2.000000e+02
      endloop
   endfacet
   facet normal 1.000000e+00 -0.000000e+00 0.000000e+00
      outer loop
         vertex 1.500000e+02 1.600000e+02 1.950000e+02
         vertex 1.500000e+02 5.000000e+00 1.950000e+02
         vertex 1.500000e+02 5.000000e+00 5.000000e+00
      endloop
   endfacet
   facet normal 1.000000e+00 0.000000e+00 0.000000e+00
      outer loop
         vertex 1.500000e+02 1.600000e+02 5.000000e+00
         vertex 1.500000e+02 1.600000e+02 1.950000e+02
         vertex 1.500000e+02 5.000000e+00 5.000000e+00
      endloop
   endfacet
   facet normal 1.295532e-16 6.168358e-17 -1.000000e+00
      outer loop
         vertex 1.450000e+02 1.600000e+02 3.006405e-14
         vertex 1.450000e+02 5.000000e+00 2.050310e-14
         vertex -1.450000e+02 5.000000e+00 -1.706733e-14
      endloop
   endfacet
   facet normal 1.311565e-16 5.868384e-17 -1.000000e+00
      outer loop
         vertex -1.450000e+02 1.600000e+02 -7.971338e-15
         vertex 1.450000e+02 1.600000e+02 3.006405e-14
         vertex -1.450000e+02 5.000000e+00 -1.706733e-14
      endloop
   endfacet
   facet normal 1.950887e-01 0.000000e+00 9.807856e-01
      outer loop
         vertex 1.469134e+02 1.600000e+02 1.996194e+02
         vertex 1.450000e+02 1.600000e+02 2.000000e+02
         vertex 1.450000e+02 5.000000e+00 2.000000e+02
      endloop
   endfacet
   facet normal 8.314699e-01 0.000000e+00 5.555699e-01
      outer loop
         vertex 1.496194e+02 5.000000e+00 1.969134e+02
         vertex 1.496194e+02 1.600000e+02 1.969134e+02
         vertex 1.485355e+02 1.600000e+02 1.985355e+02
      endloop
   endfacet
   facet normal 9.807856e-01 -0.000000e+00 1.950887e-01
      outer loop
         vertex 1.496194e+02 1.600000e+02 1.969134e+02
         vertex 1.500000e+02 5.000000e+00 1.950000e+02
         vertex 1.500000e+02 1.600000e+02 1.950000e+02
      endloop
   endfacet
   facet normal 5.555699e-01 -0.000000e+00 8.314699e-01
      outer loop
         vertex 1.469134e+02 1.600000e+02 1.996194e+02
         vertex 1.469134e+02 5.000000e+00 1.996194e+02
         vertex 1.485355e+02 5.000000e+00 1.985355e+02
      endloop
   endfacet
   facet normal 1.950887e-01 0.000000e+00 9.807856e-01
      outer loop
         vertex 1.469134e+02 5.000000e+00 1.996194e+02
         vertex 1.469134e+02 1.600000e+02 1.996194e+02
         vertex 1.450000e+02 5.000000e+00 2.000000e+02
      endloop
   endfacet
   facet normal 9.807856e-01 0.000000e+00 1.950887e-01
      outer loop
         vertex 1.496194e+02 5.000000e+00 1.969134e+02
         vertex 1.500000e+02 5.000000e+00 1.950000e+02
         vertex 1.496194e+02 1.600000e+02 1.969134e+02
      endloop
   endfacet
   facet normal 5.555699e-01 0.000000e+00 8.314699e-01
      outer loop
         vertex 1.485355e+02 5.000000e+00 1.985355e+02
         vertex 1.485355e+02 1.600000e+02 1.985355e+02
         vertex 1.469134e+02 1.600000e+02 1.996194e+02
      endloop
   endfacet
   facet normal 8.314699e-01 0.000000e+00 5.555699e-01
      outer loop
         vertex 1.485355e+02 5.000000e+00 1.985355e+02
         vertex 1.496194e+02 5.000000e+00 1.969134e+02
         vertex 1.485355e+02 1.600000e+02 1.985355e+02
      endloop
   endfacet
   facet normal 9.807855e-01 0.000000e+00 -1.950892e-01
      outer loop
         vertex 1.496194e+02 1.600000e+02 3.086583e+00
         vertex 1.500000e+02 1.600000e+02 5.000000e+00
         vertex 1.500000e+02 5.000000e+00 5.000000e+00
      endloop
   endfacet
   facet normal 5.555704e-01 0.000000e+00 -8.314695e-01
      outer loop
         vertex 1.485355e+02 5.000000e+00 1.464466e+00
         vertex 1.469134e+02 1.600000e+02 3.806023e-01
         vertex 1.485355e+02 1.600000e+02 1.464466e+00
      endloop
   endfacet
   facet normal 1.950899e-01 6.049836e-17 -9.807854e-01
      outer loop
         vertex 1.469134e+02 5.000000e+00 3.806023e-01
         vertex 1.450000e+02 5.000000e+00 2.050310e-14
         vertex 1.450000e+02 1.600000e+02 3.006405e-14
      endloop
   endfacet
   facet normal 8.314700e-01 0.000000e+00 -5.555697e-01
      outer loop
         vertex 1.485355e+02 1.600000e+02 1.464466e+00
         vertex 1.496194e+02 5.000000e+00 3.086583e+00
         vertex 1.485355e+02 5.000000e+00 1.464466e+00
      endloop
   endfacet
   facet normal 9.807855e-01 0.000000e+00 -1.950892e-01
      outer loop
         vertex 1.496194e+02 5.000000e+00 3.086583e+00
         vertex 1.496194e+02 1.600000e+02 3.086583e+00
         vertex 1.500000e+02 5.000000e+00 5.000000e+00
      endloop
   endfacet
   facet normal 8.314700e-01 0.000000e+00 -5.555697e-01
      outer loop
         vertex 1.496194e+02 1.600000e+02 3.086583e+00
         vertex 1.496194e+02 5.000000e+00 3.086583e+00
         vertex 1.485355e+02 1.600000e+02 1.464466e+00
      endloop
   endfacet
   facet normal 1.950899e-01 0.000000e+00 -9.807854e-01
      outer loop
         vertex 1.469134e+02 5.000000e+00 3.806023e-01
         vertex 1.450000e+02 1.600000e+02 3.006405e-14
         vertex 1.469134e+02 1.600000e+02 3.806023e-01
      endloop
   endfacet
   facet normal 5.555704e-01 0.000000e+00 -8.314695e-01
      outer loop
         vertex 1.469134e+02 5.000000e+00 3.806023e-01
         vertex 1.469134e+02 1.600000e+02 3.806023e-01
         vertex 1.485355e+02 5.000000e+00 1.464466e+00
      endloop
   endfacet
   facet normal -9.807856e-01 0.000000e+00 1.950887e-01
      outer loop
         vertex -1.500000e+02 -1.152127e-14 1.950000e+02
         vertex -1.496194e+02 1.600000e+02 1.969134e+02
         vertex -1.500000e+02 1.600000e+02 1.950000e+02
      endloop
   endfacet
   facet normal -5.555699e-01 8.843871e-05 8.314698e-01
      outer loop
         vertex -1.484823e+02 1.517650e+00 1.985879e+02
         vertex -1.469134e+02 1.600000e+02 1.996194e+02
         vertex -1.485355e+02 1.600000e+02 1.985355e+02
      endloop
   endfacet
   facet normal -1.838937e-01 0.000000e+00 9.829461e-01
      outer loop
         vertex -1.468076e+02 3.192446e+00 1.996618e+02
         vertex -1.450000e+02 5.000000e+00 2.000000e+02
         vertex -1.450000e+02 1.600000e+02 2.000000e+02
      endloop
   endfacet
   facet normal -8.252100e-01 -9.022165e-05 5.648261e-01
      outer loop
         vertex -1.485355e+02 1.600000e+02 1.985355e+02
         vertex -1.496053e+02 3.947145e-01 1.969471e+02
         vertex -1.484823e+02 1.517650e+00 1.985879e+02
      endloop
   endfacet
   facet normal -9.800639e-01 -4.469179e-05 1.986823e-01
      outer loop
         vertex -1.496053e+02 3.947145e-01 1.969471e+02
         vertex -1.496194e+02 1.600000e+02 1.969134e+02
         vertex -1.500000e+02 -1.152127e-14 1.950000e+02
      endloop
   endfacet
   facet normal -8.314699e-01 4.385321e-05 5.555699e-01
      outer loop
         vertex -1.496194e+02 1.600000e+02 1.969134e+02
         vertex -1.496053e+02 3.947145e-01 1.969471e+02
         vertex -1.485355e+02 1.600000e+02 1.985355e+02
      endloop
   endfacet
   facet normal -1.950887e-01 1.337064e-04 9.807856e-01
      outer loop
         vertex -1.468076e+02 3.192446e+00 1.996618e+02
         vertex -1.450000e+02 1.600000e+02 2.000000e+02
         vertex -1.469134e+02 1.600000e+02 1.996194e+02
      endloop
   endfacet
   facet normal -5.396817e-01 -1.365317e-04 8.418691e-01
      outer loop
         vertex -1.468076e+02 3.192446e+00 1.996618e+02
         vertex -1.469134e+02 1.600000e+02 1.996194e+02
         vertex -1.484823e+02 1.517650e+00 1.985879e+02
      endloop
   endfacet
   facet normal 7.185058e-05 -1.950892e-01 9.807855e-01
      outer loop
         vertex -1.468076e+02 3.192446e+00 1.996618e+02
         vertex 1.450000e+02 3.086583e+00 1.996194e+02
         vertex 1.450000e+02 5.000000e+00 2.000000e+02
      endloop
   endfacet
   facet normal 2.376420e-05 -8.314695e-01 5.555704e-01
      outer loop
         vertex -1.496053e+02 3.947145e-01 1.969471e+02
         vertex 1.450000e+02 3.806023e-01 1.969134e+02
         vertex 1.450000e+02 1.464466e+00 1.985355e+02
      endloop
   endfacet
   facet normal 1.905532e-19 -9.807854e-01 1.950899e-01
      outer loop
         vertex 1.450000e+02 3.806023e-01 1.969134e+02
         vertex -1.500000e+02 -1.152127e-14 1.950000e+02
         vertex 1.450000e+02 -1.146395e-14 1.950000e+02
      endloop
   endfacet
   facet normal -7.338322e-05 -5.397248e-01 8.418415e-01
      outer loop
         vertex 1.450000e+02 3.086583e+00 1.996194e+02
         vertex -1.468076e+02 3.192446e+00 1.996618e+02
         vertex -1.484823e+02 1.517650e+00 1.985879e+02
      endloop
   endfacet
   facet normal 0.000000e+00 -1.838940e-01 9.829461e-01
      outer loop
         vertex -1.468076e+02 3.192446e+00 1.996618e+02
         vertex 1.450000e+02 5.000000e+00 2.000000e+02
         vertex -1.450000e+02 5.000000e+00 2.000000e+02
      endloop
   endfacet
   facet normal -2.420536e-05 -9.800647e-01 1.986784e-01
      outer loop
         vertex -1.496053e+02 3.947145e-01 1.969471e+02
         vertex -1.500000e+02 -1.152127e-14 1.950000e+02
         vertex 1.450000e+02 3.806023e-01 1.969134e+02
      endloop
   endfacet
   facet normal 4.777399e-05 -5.555697e-01 8.314700e-01
      outer loop
         vertex -1.484823e+02 1.517650e+00 1.985879e+02
         vertex 1.450000e+02 1.464466e+00 1.985355e+02
         vertex 1.450000e+02 3.086583e+00 1.996194e+02
      endloop
   endfacet
   facet normal -4.870218e-05 -8.252244e-01 5.648050e-01
      outer loop
         vertex -1.484823e+02 1.517650e+00 1.985879e+02
         vertex -1.496053e+02 3.947145e-01 1.969471e+02
         vertex 1.450000e+02 1.464466e+00 1.985355e+02
      endloop
   endfacet
   facet normal 4.681470e-01 -8.264363e-01 3.127962e-01
      outer loop
         vertex 1.475000e+02 1.464466e+00 1.975000e+02
         vertex 1.463530e+02 3.806023e-01 1.963530e+02
         vertex 1.467678e+02 3.806023e-01 1.957322e+02
      endloop
   endfacet
   facet normal 4.681394e-01 -8.264388e-01 3.128009e-01
      outer loop
         vertex 1.482664e+02 1.464466e+00 1.963530e+02
         vertex 1.475000e+02 1.464466e+00 1.975000e+02
         vertex 1.467678e+02 3.806023e-01 1.957322e+02
      endloop
   endfacet
   facet normal 3.127935e-01 -8.264396e-01 4.681430e-01
      outer loop
         vertex 1.463530e+02 1.464466e+00 1.982664e+02
         vertex 1.457322e+02 3.806023e-01 1.967678e+02
         vertex 1.463530e+02 3.806023e-01 1.963530e+02
      endloop
   endfacet
   facet normal 3.128023e-01 -8.264370e-01 4.681416e-01
      outer loop
         vertex 1.475000e+02 1.464466e+00 1.975000e+02
         vertex 1.463530e+02 1.464466e+00 1.982664e+02
         vertex 1.463530e+02 3.806023e-01 1.963530e+02
      endloop
   endfacet
   facet normal 6.954398e-01 -5.481221e-01 4.646781e-01
      outer loop
         vertex 1.482664e+02 3.086583e+00 1.982664e+02
         vertex 1.475000e+02 1.464466e+00 1.975000e+02
         vertex 1.482664e+02 1.464466e+00 1.963530e+02
      endloop
   endfacet
   facet normal 6.954407e-01 -5.481213e-01 4.646775e-01
      outer loop
         vertex 1.492678e+02 3.086583e+00 1.967678e+02
         vertex 1.482664e+02 3.086583e+00 1.982664e+02
         vertex 1.482664e+02 1.464466e+00 1.963530e+02
      endloop
   endfacet
   facet normal 4.646784e-01 -5.481213e-01 6.954402e-01
      outer loop
         vertex 1.467678e+02 3.086583e+00 1.992678e+02
         vertex 1.463530e+02 1.464466e+00 1.982664e+02
         vertex 1.475000e+02 1.464466e+00 1.975000e+02
      endloop
   endfacet
   facet normal 4.646773e-01 -5.481220e-01 6.954404e-01
      outer loop
         vertex 1.482664e+02 3.086583e+00 1.982664e+02
         vertex 1.467678e+02 3.086583e+00 1.992678e+02
         vertex 1.475000e+02 1.464466e+00 1.975000e+02
      endloop
   endfacet
   facet normal 0.000000e+00 0.000000e+00 0.000000e+00
      outer loop
         vertex 1.450000e+02 -1.146395e-14 1.950000e+02
         vertex 1.450000e+02 3.806023e-01 1.969134e+02
         vertex 1.450000e+02 -1.146395e-14 1.950000e+02
      endloop
   endfacet
   facet normal 1.631770e-01 -5.481233e-01 8.203256e-01
      outer loop
         vertex 1.463530e+02 1.464466e+00 1.982664e+02
         vertex 1.450000e+02 3.086583e+00 1.996194e+02
         vertex 1.450000e+02 1.464466e+00 1.985355e+02
      endloop
   endfacet
   facet normal 1.914789e-01 -1.914794e-01 9.626378e-01
      outer loop
         vertex 1.450000e+02 3.086583e+00 1.996194e+02
         vertex 1.469134e+02 5.000000e+00 1.996194e+02
         vertex 1.450000e+02 5.000000e+00 2.000000e+02
      endloop
   endfacet
   facet normal 9.626378e-01 -1.914794e-01 1.914789e-01
      outer loop
         vertex 1.496194e+02 3.086583e+00 1.950000e+02
         vertex 1.500000e+02 5.000000e+00 1.950000e+02
         vertex 1.496194e+02 5.000000e+00 1.969134e+02
      endloop
   endfacet
   facet normal 5.522083e-01 -8.264378e-01 1.098479e-01
      outer loop
         vertex 1.467678e+02 3.806023e-01 1.957322e+02
         vertex 1.469134e+02 3.806023e-01 1.950000e+02
         vertex 1.485355e+02 1.464466e+00 1.950000e+02
      endloop
   endfacet
   facet normal 0.000000e+00 0.000000e+00 0.000000e+00
      outer loop
         vertex 1.467678e+02 3.806023e-01 1.957322e+02
         vertex 1.450000e+02 -1.146395e-14 1.950000e+02
         vertex 1.450000e+02 -1.146395e-14 1.950000e+02
      endloop
   endfacet
   facet normal 0.000000e+00 0.000000e+00 0.000000e+00
      outer loop
         vertex 1.457322e+02 3.806023e-01 1.967678e+02
         vertex 1.450000e+02 -1.146395e-14 1.950000e+02
         vertex 1.450000e+02 -1.146395e-14 1.950000e+02
      endloop
   endfacet
   facet normal 1.104241e-01 -9.800477e-01 1.652665e-01
      outer loop
         vertex 1.450000e+02 -1.146395e-14 1.950000e+02
         vertex 1.463530e+02 3.806023e-01 1.963530e+02
         vertex 1.457322e+02 3.806023e-01 1.967678e+02
      endloop
   endfacet
   facet normal 1.098474e-01 -8.264394e-01 5.522060e-01
      outer loop
         vertex 1.450000e+02 3.806023e-01 1.969134e+02
         vertex 1.457322e+02 3.806023e-01 1.967678e+02
         vertex 1.463530e+02 1.464466e+00 1.982664e+02
      endloop
   endfacet
   facet normal 1.631772e-01 -5.481232e-01 8.203257e-01
      outer loop
         vertex 1.450000e+02 3.086583e+00 1.996194e+02
         vertex 1.463530e+02 1.464466e+00 1.982664e+02
         vertex 1.467678e+02 3.086583e+00 1.992678e+02
      endloop
   endfacet
   facet normal 5.452886e-01 -1.914866e-01 8.160841e-01
      outer loop
         vertex 1.469134e+02 5.000000e+00 1.996194e+02
         vertex 1.467678e+02 3.086583e+00 1.992678e+02
         vertex 1.482664e+02 3.086583e+00 1.982664e+02
      endloop
   endfacet
   facet normal 1.098439e-01 -8.264382e-01 5.522086e-01
      outer loop
         vertex 1.450000e+02 3.806023e-01 1.969134e+02
         vertex 1.463530e+02 1.464466e+00 1.982664e+02
         vertex 1.450000e+02 1.464466e+00 1.985355e+02
      endloop
   endfacet
   facet normal 5.522073e-01 -8.264390e-01 1.098436e-01
      outer loop
         vertex 1.482664e+02 1.464466e+00 1.963530e+02
         vertex 1.467678e+02 3.806023e-01 1.957322e+02
         vertex 1.485355e+02 1.464466e+00 1.950000e+02
      endloop
   endfacet
   facet normal 1.652665e-01 -9.800477e-01 1.104241e-01
      outer loop
         vertex 1.463530e+02 3.806023e-01 1.963530e+02
         vertex 1.450000e+02 -1.146395e-14 1.950000e+02
         vertex 1.467678e+02 3.806023e-01 1.957322e+02
      endloop
   endfacet
   facet normal 3.877901e-02 -9.800476e-01 1.949431e-01
      outer loop
         vertex 1.450000e+02 -1.146395e-14 1.950000e+02
         vertex 1.457322e+02 3.806023e-01 1.967678e+02
         vertex 1.450000e+02 3.806023e-01 1.969134e+02
      endloop
   endfacet
   facet normal 8.203256e-01 -5.481233e-01 1.631770e-01
      outer loop
         vertex 1.496194e+02 3.086583e+00 1.950000e+02
         vertex 1.482664e+02 1.464466e+00 1.963530e+02
         vertex 1.485355e+02 1.464466e+00 1.950000e+02
      endloop
   endfacet
   facet normal 5.452893e-01 -1.914859e-01 8.160838e-01
      outer loop
         vertex 1.482664e+02 3.086583e+00 1.982664e+02
         vertex 1.485355e+02 5.000000e+00 1.985355e+02
         vertex 1.469134e+02 5.000000e+00 1.996194e+02
      endloop
   endfacet
   facet normal 1.949431e-01 -9.800476e-01 3.877901e-02
      outer loop
         vertex 1.467678e+02 3.806023e-01 1.957322e+02
         vertex 1.450000e+02 -1.146395e-14 1.950000e+02
         vertex 1.469134e+02 3.806023e-01 1.950000e+02
      endloop
   endfacet
   facet normal 8.203257e-01 -5.481232e-01 1.631772e-01
      outer loop
         vertex 1.496194e+02 3.086583e+00 1.950000e+02
         vertex 1.492678e+02 3.086583e+00 1.967678e+02
         vertex 1.482664e+02 1.464466e+00 1.963530e+02
      endloop
   endfacet
   facet normal 1.914851e-01 -1.914855e-01 9.626353e-01
      outer loop
         vertex 1.467678e+02 3.086583e+00 1.992678e+02
         vertex 1.469134e+02 5.000000e+00 1.996194e+02
         vertex 1.450000e+02 3.086583e+00 1.996194e+02
      endloop
   endfacet
   facet normal 0.000000e+00 0.000000e+00 0.000000e+00
      outer loop
         vertex 1.450000e+02 -1.146395e-14 1.950000e+02
         vertex 1.463530e+02 3.806023e-01 1.963530e+02
         vertex 1.450000e+02 -1.146395e-14 1.950000e+02
      endloop
   endfacet
   facet normal 8.160837e-01 -1.914866e-01 5.452892e-01
      outer loop
         vertex 1.492678e+02 3.086583e+00 1.967678e+02
         vertex 1.496194e+02 5.000000e+00 1.969134e+02
         vertex 1.485355e+02 5.000000e+00 1.985355e+02
      endloop
   endfacet
   facet normal 9.626353e-01 -1.914855e-01 1.914851e-01
      outer loop
         vertex 1.492678e+02 3.086583e+00 1.967678e+02
         vertex 1.496194e+02 3.086583e+00 1.950000e+02
         vertex 1.496194e+02 5.000000e+00 1.969134e+02
      endloop
   endfacet
   facet normal 8.160842e-01 -1.914859e-01 5.452887e-01
      outer loop
         vertex 1.482664e+02 3.086583e+00 1.982664e+02
         vertex 1.492678e+02 3.086583e+00 1.967678e+02
         vertex 1.485355e+02 5.000000e+00 1.985355e+02
      endloop
   endfacet
   facet normal 9.807855e-01 -1.950892e-01 0.000000e+00
      outer loop
         vertex 1.496194e+02 3.086583e+00 1.950000e+02
         vertex 1.496194e+02 3.086583e+00 5.000000e+00
         vertex 1.500000e+02 5.000000e+00 5.000000e+00
      endloop
   endfacet
   facet normal 5.555704e-01 -8.314695e-01 0.000000e+00
      outer loop
         vertex 1.469134e+02 3.806023e-01 1.950000e+02
         vertex 1.469134e+02 3.806023e-01 5.000000e+00
         vertex 1.485355e+02 1.464466e+00 5.000000e+00
      endloop
   endfacet
   facet normal 1.950899e-01 -9.807854e-01 -6.120625e-17
      outer loop
         vertex 1.469134e+02 3.806023e-01 5.000000e+00
         vertex 1.450000e+02 -1.146395e-14 1.950000e+02
         vertex 1.450000e+02 3.930623e-16 5.000000e+00
      endloop
   endfacet
   facet normal 8.314700e-01 -5.555697e-01 0.000000e+00
      outer loop
         vertex 1.496194e+02 3.086583e+00 5.000000e+00
         vertex 1.496194e+02 3.086583e+00 1.950000e+02
         vertex 1.485355e+02 1.464466e+00 1.950000e+02
      endloop
   endfacet
   facet normal 9.807855e-01 -1.950892e-01 0.000000e+00
      outer loop
         vertex 1.496194e+02 3.086583e+00 1.950000e+02
         vertex 1.500000e+02 5.000000e+00 5.000000e+00
         vertex 1.500000e+02 5.000000e+00 1.950000e+02
      endloop
   endfacet
   facet normal 1.950899e-01 -9.807854e-01 0.000000e+00
      outer loop
         vertex 1.469134e+02 3.806023e-01 1.950000e+02
         vertex 1.450000e+02 -1.146395e-14 1.950000e+02
         vertex 1.469134e+02 3.806023e-01 5.000000e+00
      endloop
   endfacet
   facet normal 8.314700e-01 -5.555697e-01 0.000000e+00
      outer loop
         vertex 1.485355e+02 1.464466e+00 1.950000e+02
         vertex 1.485355e+02 1.464466e+00 5.000000e+00
         vertex 1.496194e+02 3.086583e+00 5.000000e+00
      endloop
   endfacet
   facet normal 5.555704e-01 -8.314695e-01 0.000000e+00
      outer loop
         vertex 1.485355e+02 1.464466e+00 1.950000e+02
         vertex 1.469134e+02 3.806023e-01 1.950000e+02
         vertex 1.485355e+02 1.464466e+00 5.000000e+00
      endloop
   endfacet
   facet normal 3.128013e-01 -8.264379e-01 -4.681407e-01
      outer loop
         vertex 1.475000e+02 1.464466e+00 2.500000e+00
         vertex 1.463530e+02 3.806023e-01 3.647010e+00
         vertex 1.457322e+02 3.806023e-01 3.232233e+00
      endloop
   endfacet
   facet normal 3.128023e-01 -8.264385e-01 -4.681391e-01
      outer loop
         vertex 1.463530e+02 1.464466e+00 1.733593e+00
         vertex 1.475000e+02 1.464466e+00 2.500000e+00
         vertex 1.457322e+02 3.806023e-01 3.232233e+00
      endloop
   endfacet
   facet normal 4.681430e-01 -8.264394e-01 -3.127939e-01
      outer loop
         vertex 1.482664e+02 1.464466e+00 3.647010e+00
         vertex 1.467678e+02 3.806023e-01 4.267767e+00
         vertex 1.463530e+02 3.806023e-01 3.647010e+00
      endloop
   endfacet
   facet normal 4.681419e-01 -8.264375e-01 -3.128007e-01
      outer loop
         vertex 1.475000e+02 1.464466e+00 2.500000e+00
         vertex 1.482664e+02 1.464466e+00 3.647010e+00
         vertex 1.463530e+02 3.806023e-01 3.647010e+00
      endloop
   endfacet
   facet normal 4.646793e-01 -5.481235e-01 -6.954378e-01
      outer loop
         vertex 1.482664e+02 3.086583e+00 1.733593e+00
         vertex 1.475000e+02 1.464466e+00 2.500000e+00
         vertex 1.463530e+02 1.464466e+00 1.733593e+00
      endloop
   endfacet
   facet normal 4.646778e-01 -5.481218e-01 -6.954402e-01
      outer loop
         vertex 1.467678e+02 3.086583e+00 7.322330e-01
         vertex 1.482664e+02 3.086583e+00 1.733593e+00
         vertex 1.463530e+02 1.464466e+00 1.733593e+00
      endloop
   endfacet
   facet normal 6.954400e-01 -5.481239e-01 -4.646755e-01
      outer loop
         vertex 1.492678e+02 3.086583e+00 3.232233e+00
         vertex 1.482664e+02 1.464466e+00 3.647010e+00
         vertex 1.475000e+02 1.464466e+00 2.500000e+00
      endloop
   endfacet
   facet normal 6.954397e-01 -5.481229e-01 -4.646773e-01
      outer loop
         vertex 1.482664e+02 3.086583e+00 1.733593e+00
         vertex 1.492678e+02 3.086583e+00 3.232233e+00
         vertex 1.475000e+02 1.464466e+00 2.500000e+00
      endloop
   endfacet
   facet normal 0.000000e+00 0.000000e+00 0.000000e+00
      outer loop
         vertex 1.450000e+02 3.930623e-16 5.000000e+00
         vertex 1.469134e+02 3.806023e-01 5.000000e+00
         vertex 1.450000e+02 3.930623e-16 5.000000e+00
      endloop
   endfacet
   facet normal 8.203255e-01 -5.481232e-01 -1.631778e-01
      outer loop
         vertex 1.482664e+02 1.464466e+00 3.647010e+00
         vertex 1.496194e+02 3.086583e+00 5.000000e+00
         vertex 1.485355e+02 1.464466e+00 5.000000e+00
      endloop
   endfacet
   facet normal 9.626377e-01 -1.914794e-01 -1.914794e-01
      outer loop
         vertex 1.496194e+02 3.086583e+00 5.000000e+00
         vertex 1.496194e+02 5.000000e+00 3.086583e+00
         vertex 1.500000e+02 5.000000e+00 5.000000e+00
      endloop
   endfacet
   facet normal 1.914800e-01 -1.914805e-01 -9.626373e-01
      outer loop
         vertex 1.450000e+02 3.086583e+00 3.806023e-01
         vertex 1.450000e+02 5.000000e+00 2.050310e-14
         vertex 1.469134e+02 5.000000e+00 3.806023e-01
      endloop
   endfacet
   facet normal 1.098402e-01 -8.264386e-01 -5.522086e-01
      outer loop
         vertex 1.457322e+02 3.806023e-01 3.232233e+00
         vertex 1.450000e+02 3.806023e-01 3.086583e+00
         vertex 1.450000e+02 1.464466e+00 1.464466e+00
      endloop
   endfacet
   facet normal -0.000000e+00 0.000000e+00 0.000000e+00
      outer loop
         vertex 1.457322e+02 3.806023e-01 3.232233e+00
         vertex 1.450000e+02 3.930623e-16 5.000000e+00
         vertex 1.450000e+02 3.930623e-16 5.000000e+00
      endloop
   endfacet
   facet normal -0.000000e+00 0.000000e+00 0.000000e+00
      outer loop
         vertex 1.467678e+02 3.806023e-01 4.267767e+00
         vertex 1.450000e+02 3.930623e-16 5.000000e+00
         vertex 1.450000e+02 3.930623e-16 5.000000e+00
      endloop
   endfacet
   facet normal 1.652667e-01 -9.800476e-01 -1.104244e-01
      outer loop
         vertex 1.450000e+02 3.930623e-16 5.000000e+00
         vertex 1.463530e+02 3.806023e-01 3.647010e+00
         vertex 1.467678e+02 3.806023e-01 4.267767e+00
      endloop
   endfacet
   facet normal 5.522057e-01 -8.264395e-01 -1.098482e-01
      outer loop
         vertex 1.469134e+02 3.806023e-01 5.000000e+00
         vertex 1.467678e+02 3.806023e-01 4.267767e+00
         vertex 1.482664e+02 1.464466e+00 3.647010e+00
      endloop
   endfacet
   facet normal 8.203252e-01 -5.481240e-01 -1.631766e-01
      outer loop
         vertex 1.496194e+02 3.086583e+00 5.000000e+00
         vertex 1.482664e+02 1.464466e+00 3.647010e+00
         vertex 1.492678e+02 3.086583e+00 3.232233e+00
      endloop
   endfacet
   facet normal 8.160843e-01 -1.914838e-01 -5.452893e-01
      outer loop
         vertex 1.496194e+02 5.000000e+00 3.086583e+00
         vertex 1.492678e+02 3.086583e+00 3.232233e+00
         vertex 1.482664e+02 3.086583e+00 1.733593e+00
      endloop
   endfacet
   facet normal 5.522085e-01 -8.264381e-01 -1.098444e-01
      outer loop
         vertex 1.469134e+02 3.806023e-01 5.000000e+00
         vertex 1.482664e+02 1.464466e+00 3.647010e+00
         vertex 1.485355e+02 1.464466e+00 5.000000e+00
      endloop
   endfacet
   facet normal 1.098406e-01 -8.264385e-01 -5.522087e-01
      outer loop
         vertex 1.463530e+02 1.464466e+00 1.733593e+00
         vertex 1.457322e+02 3.806023e-01 3.232233e+00
         vertex 1.450000e+02 1.464466e+00 1.464466e+00
      endloop
   endfacet
   facet normal 1.104264e-01 -9.800477e-01 -1.652650e-01
      outer loop
         vertex 1.463530e+02 3.806023e-01 3.647010e+00
         vertex 1.450000e+02 3.930623e-16 5.000000e+00
         vertex 1.457322e+02 3.806023e-01 3.232233e+00
      endloop
   endfacet
   facet normal 1.949431e-01 -9.800476e-01 -3.877931e-02
      outer loop
         vertex 1.450000e+02 3.930623e-16 5.000000e+00
         vertex 1.467678e+02 3.806023e-01 4.267767e+00
         vertex 1.469134e+02 3.806023e-01 5.000000e+00
      endloop
   endfacet
   facet normal 1.631722e-01 -5.481242e-01 -8.203259e-01
      outer loop
         vertex 1.450000e+02 3.086583e+00 3.806023e-01
         vertex 1.463530e+02 1.464466e+00 1.733593e+00
         vertex 1.450000e+02 1.464466e+00 1.464466e+00
      endloop
   endfacet
   facet normal 8.160843e-01 -1.914837e-01 -5.452893e-01
      outer loop
         vertex 1.482664e+02 3.086583e+00 1.733593e+00
         vertex 1.485355e+02 5.000000e+00 1.464466e+00
         vertex 1.496194e+02 5.000000e+00 3.086583e+00
      endloop
   endfacet
   facet normal 3.877637e-02 -9.800476e-01 -1.949436e-01
      outer loop
         vertex 1.457322e+02 3.806023e-01 3.232233e+00
         vertex 1.450000e+02 3.930623e-16 5.000000e+00
         vertex 1.450000e+02 3.806023e-01 3.086583e+00
      endloop
   endfacet
   facet normal 1.631736e-01 -5.481234e-01 -8.203262e-01
      outer loop
         vertex 1.450000e+02 3.086583e+00 3.806023e-01
         vertex 1.467678e+02 3.086583e+00 7.322330e-01
         vertex 1.463530e+02 1.464466e+00 1.733593e+00
      endloop
   endfacet
   facet normal 9.626356e-01 -1.914845e-01 -1.914845e-01
      outer loop
         vertex 1.492678e+02 3.086583e+00 3.232233e+00
         vertex 1.496194e+02 5.000000e+00 3.086583e+00
         vertex 1.496194e+02 3.086583e+00 5.000000e+00
      endloop
   endfacet
   facet normal 0.000000e+00 0.000000e+00 0.000000e+00
      outer loop
         vertex 1.450000e+02 3.930623e-16 5.000000e+00
         vertex 1.463530e+02 3.806023e-01 3.647010e+00
         vertex 1.450000e+02 3.930623e-16 5.000000e+00
      endloop
   endfacet
   facet normal 5.452901e-01 -1.914833e-01 -8.160839e-01
      outer loop
         vertex 1.467678e+02 3.086583e+00 7.322330e-01
         vertex 1.469134e+02 5.000000e+00 3.806023e-01
         vertex 1.485355e+02 5.000000e+00 1.464466e+00
      endloop
   endfacet
   facet normal 1.914810e-01 -1.914815e-01 -9.626369e-01
      outer loop
         vertex 1.467678e+02 3.086583e+00 7.322330e-01
         vertex 1.450000e+02 3.086583e+00 3.806023e-01
         vertex 1.469134e+02 5.000000e+00 3.806023e-01
      endloop
   endfacet
   facet normal 5.452896e-01 -1.914827e-01 -8.160843e-01
      outer loop
         vertex 1.482664e+02 3.086583e+00 1.733593e+00
         vertex 1.467678e+02 3.086583e+00 7.322330e-01
         vertex 1.485355e+02 5.000000e+00 1.464466e+00
      endloop
   endfacet
   facet normal -2.706929e-05 -1.990353e-01 -9.799923e-01
      outer loop
         vertex 1.450000e+02 3.086583e+00 3.806023e-01
         vertex -1.469508e+02 3.049225e+00 3.962539e-01
         vertex -1.450000e+02 5.000000e+00 -1.706733e-14
      endloop
   endfacet
   facet normal -7.624462e-05 -8.424300e-01 -5.388057e-01
      outer loop
         vertex 1.450000e+02 3.806023e-01 3.086583e+00
         vertex -1.496640e+02 3.360113e-01 3.197999e+00
         vertex -1.485921e+02 1.407867e+00 1.521986e+00
      endloop
   endfacet
   facet normal 1.819963e-18 -9.830559e-01 -1.833061e-01
      outer loop
         vertex -1.496640e+02 3.360113e-01 3.197999e+00
         vertex 1.450000e+02 3.930623e-16 5.000000e+00
         vertex -1.500000e+02 -1.530808e-16 5.000000e+00
      endloop
   endfacet
   facet normal 2.651470e-05 -5.555702e-01 -8.314696e-01
      outer loop
         vertex -1.469508e+02 3.049225e+00 3.962539e-01
         vertex 1.450000e+02 3.086583e+00 3.806023e-01
         vertex 1.450000e+02 1.464466e+00 1.464466e+00
      endloop
   endfacet
   facet normal 1.270639e-16 -1.950903e-01 -9.807853e-01
      outer loop
         vertex 1.450000e+02 3.086583e+00 3.806023e-01
         vertex -1.450000e+02 5.000000e+00 -1.706733e-14
         vertex 1.450000e+02 5.000000e+00 2.050310e-14
      endloop
   endfacet
   facet normal 7.465495e-05 -9.807853e-01 -1.950903e-01
      outer loop
         vertex 1.450000e+02 3.806023e-01 3.086583e+00
         vertex 1.450000e+02 3.930623e-16 5.000000e+00
         vertex -1.496640e+02 3.360113e-01 3.197999e+00
      endloop
   endfacet
   facet normal -5.254219e-05 -5.655710e-01 -8.246996e-01
      outer loop
         vertex 1.450000e+02 1.464466e+00 1.464466e+00
         vertex -1.485921e+02 1.407867e+00 1.521986e+00
         vertex -1.469508e+02 3.049225e+00 3.962539e-01
      endloop
   endfacet
   facet normal 5.144591e-05 -8.314696e-01 -5.555702e-01
      outer loop
         vertex 1.450000e+02 1.464466e+00 1.464466e+00
         vertex 1.450000e+02 3.806023e-01 3.086583e+00
         vertex -1.485921e+02 1.407867e+00 1.521986e+00
      endloop
   endfacet
   facet normal -1.950899e-01 5.727518e-17 -9.807854e-01
      outer loop
         vertex -1.450000e+02 5.000000e+00 -1.706733e-14
         vertex -1.469134e+02 1.600000e+02 3.806023e-01
         vertex -1.450000e+02 1.600000e+02 -7.971338e-15
      endloop
   endfacet
   facet normal -8.314700e-01 9.521530e-05 -5.555697e-01
      outer loop
         vertex -1.485921e+02 1.407867e+00 1.521986e+00
         vertex -1.496194e+02 1.600000e+02 3.086583e+00
         vertex -1.485355e+02 1.600000e+02 1.464466e+00
      endloop
   endfacet
   facet normal -9.830556e-01 0.000000e+00 -1.833074e-01
      outer loop
         vertex -1.496640e+02 3.360113e-01 3.197999e+00
         vertex -1.500000e+02 -1.530808e-16 5.000000e+00
         vertex -1.500000e+02 1.600000e+02 5.000000e+00
      endloop
   endfacet
   facet normal -5.655409e-01 -9.730264e-05 -8.247203e-01
      outer loop
         vertex -1.485355e+02 1.600000e+02 1.464466e+00
         vertex -1.469508e+02 3.049225e+00 3.962539e-01
         vertex -1.485921e+02 1.407867e+00 1.521986e+00
      endloop
   endfacet
   facet normal -1.990128e-01 -5.036366e-05 -9.799969e-01
      outer loop
         vertex -1.469508e+02 3.049225e+00 3.962539e-01
         vertex -1.469134e+02 1.600000e+02 3.806023e-01
         vertex -1.450000e+02 5.000000e+00 -1.706733e-14
      endloop
   endfacet
   facet normal -5.555704e-01 4.930681e-05 -8.314695e-01
      outer loop
         vertex -1.469134e+02 1.600000e+02 3.806023e-01
         vertex -1.469508e+02 3.049225e+00 3.962539e-01
         vertex -1.485355e+02 1.600000e+02 1.464466e+00
      endloop
   endfacet
   facet normal -9.807855e-01 1.377487e-04 -1.950892e-01
      outer loop
         vertex -1.496640e+02 3.360113e-01 3.197999e+00
         vertex -1.500000e+02 1.600000e+02 5.000000e+00
         vertex -1.496194e+02 1.600000e+02 3.086583e+00
      endloop
   endfacet
   facet normal -8.424117e-01 -1.407621e-04 -5.388344e-01
      outer loop
         vertex -1.496640e+02 3.360113e-01 3.197999e+00
         vertex -1.496194e+02 1.600000e+02 3.086583e+00
         vertex -1.485921e+02 1.407867e+00 1.521986e+00
      endloop
   endfacet
endsolid
